<svg width="560" height="157" viewBox="0 0 560 157" fill="none" xmlns="http://www.w3.org/2000/svg">
<g clip-path="url(#clip0_1_17)">
<mask id="mask0_1_17" style="mask-type:luminance" maskUnits="userSpaceOnUse" x="0" y="0" width="157" height="157">
<path d="M157 0H0V157H157V0Z" fill="white"/>
</mask>
<g mask="url(#mask0_1_17)">
<path d="M157 0H0V157H157V0Z" fill="#DAE5C5"/>
<path d="M58.7854 121.292L45.1644 134.904L58.7854 148.516L50.3007 157L28.2035 134.904L50.3007 112.808L58.7854 121.292ZM128.805 134.904L106.708 157L98.223 148.516L111.836 134.896L98.2315 121.292L106.708 112.808L128.805 134.904ZM86.0105 148.516L78.5042 156.022L70.9979 148.516L78.5042 141.01L86.0105 148.516ZM72.3895 134.896L64.8832 142.41L57.3853 134.904L64.8916 127.398L72.3895 134.896ZM99.6231 134.896L92.1168 142.41L84.6105 134.904L92.1252 127.398L99.6231 134.896ZM22.1057 111.83L35.7182 98.2262L44.1945 106.702L22.0972 128.798L0.00843406 106.702L8.4931 98.2178L22.1057 111.83ZM157 106.694L134.903 128.79L112.814 106.702L121.299 98.2262L134.903 111.83L148.524 98.2178L157 106.694ZM29.612 92.1203L22.1057 99.6178L14.5994 92.1118L22.0972 84.6059L29.612 92.1203ZM142.418 92.1118L134.903 99.6178L127.405 92.1203L134.911 84.6059L142.418 92.1118ZM15.991 78.5L8.47623 86.0059L0.969917 78.5L8.47623 70.9857L15.991 78.5ZM156.03 78.5L148.524 86.0059L141.009 78.5L148.524 70.9857L156.03 78.5ZM29.612 64.8713L22.1057 72.3772L14.5994 64.8713L22.1057 57.3654L29.612 64.8713ZM142.418 64.8713L134.903 72.3772L127.396 64.8713L134.903 57.3654L142.418 64.8713ZM44.1945 50.298L35.7182 58.7654L22.1057 45.1451L8.47623 58.7738L0 50.298L22.0972 28.202L44.1945 50.298ZM157 50.298L148.524 58.7654L134.903 45.1451L121.282 58.7654L112.806 50.298L134.903 28.202L157 50.298ZM58.777 8.47577L45.1644 22.096L58.777 35.7079L50.3007 44.1921L28.2035 22.096L50.3007 0L58.777 8.47577ZM128.797 22.096L106.699 44.1921L98.223 35.7079L111.836 22.096L98.223 8.47577L106.699 0L128.797 22.096ZM72.3895 22.096L64.8832 29.602L57.3769 22.096L64.8832 14.5817L72.3895 22.096ZM99.6231 22.096L92.1168 29.602L84.6105 22.096L92.1168 14.5817L99.6231 22.096ZM86.0105 8.47577L78.5042 15.9901L70.9895 8.47577L78.5042 0.969865L86.0105 8.47577Z" fill="black"/>
</g>
<path d="M547.017 59.19H557.759V126H547.017V59.19ZM552.519 47.924C550.597 47.924 548.938 47.269 547.541 45.959C546.231 44.649 545.576 42.9897 545.576 40.981C545.576 38.9723 546.231 37.313 547.541 36.003C548.938 34.693 550.597 34.038 552.519 34.038C554.527 34.038 556.187 34.693 557.497 36.003C558.807 37.313 559.462 38.9723 559.462 40.981C559.462 42.9897 558.807 44.649 557.497 45.959C556.187 47.269 554.527 47.924 552.519 47.924Z" fill="#DAE5C5"/>
<path d="M481.119 79.233C481.643 74.8663 483.127 71.1547 485.573 68.098C488.018 64.954 491.249 62.5523 495.267 60.893C499.371 59.2337 504.087 58.404 509.415 58.404C517.973 58.404 524.567 60.5 529.196 64.692C533.912 68.7967 536.27 74.7353 536.27 82.508V111.721C536.27 113.468 536.619 114.647 537.318 115.258C538.016 115.869 539.108 116.175 540.593 116.175H543.999V126H538.104C533.3 126 530.025 124.952 528.279 122.856C526.619 120.673 525.877 117.703 526.052 113.948L526.183 111.721L527.493 113.293C525.484 116.786 522.602 119.93 518.847 122.725C515.179 125.432 510.113 126.786 503.651 126.786C498.76 126.786 494.437 126 490.682 124.428C487.014 122.856 484.132 120.629 482.036 117.747C480.027 114.778 479.023 111.284 479.023 107.267C479.023 100.542 481.293 95.3897 485.835 91.809C490.463 88.2283 497.144 86.438 505.878 86.438H525.528V81.853C525.528 77.4863 524.043 74.0803 521.074 71.635C518.192 69.1897 514.131 67.967 508.891 67.967C504.175 67.967 500.332 69.015 497.363 71.111C494.393 73.1197 492.559 75.827 491.861 79.233H481.119ZM525.528 95.477H504.83C500.026 95.477 496.315 96.394 493.695 98.228C491.162 99.9747 489.896 102.769 489.896 106.612C489.896 109.843 491.206 112.507 493.826 114.603C496.446 116.612 499.983 117.616 504.437 117.616C508.891 117.616 512.69 116.83 515.834 115.258C518.978 113.599 521.379 111.372 523.039 108.577C524.698 105.695 525.528 102.42 525.528 98.752V95.477Z" fill="#DAE5C5"/>
<path d="M461.377 34.3H472.119V126H462.818L460.722 110.411L462.818 113.031C460.722 116.524 457.709 119.712 453.779 122.594C449.849 125.389 444.74 126.786 438.452 126.786C432.338 126.786 426.836 125.476 421.946 122.856C417.142 120.149 413.343 116.262 410.549 111.197C407.754 106.044 406.357 99.8437 406.357 92.595C406.357 85.783 407.754 79.8007 410.549 74.648C413.343 69.4953 417.142 65.5217 421.946 62.727C426.836 59.845 432.338 58.404 438.452 58.404C444.74 58.404 449.892 59.6703 453.91 62.203C458.014 64.7357 460.94 67.9233 462.687 71.766L461.377 74.255V34.3ZM439.5 67.967C435.046 67.967 431.159 69.015 427.841 71.111C424.522 73.207 421.946 76.089 420.112 79.757C418.278 83.425 417.361 87.7043 417.361 92.595C417.361 97.3983 418.278 101.678 420.112 105.433C421.946 109.101 424.522 111.983 427.841 114.079C431.159 116.175 435.046 117.223 439.5 117.223C443.866 117.223 447.709 116.175 451.028 114.079C454.346 111.983 456.923 109.101 458.757 105.433C460.591 101.765 461.508 97.573 461.508 92.857C461.508 87.9663 460.591 83.6433 458.757 79.888C456.923 76.1327 454.346 73.207 451.028 71.111C447.709 69.015 443.866 67.967 439.5 67.967Z" fill="#DAE5C5"/>
<path d="M368.494 117.223C372.948 117.223 376.834 116.175 380.153 114.079C383.471 111.896 386.048 108.97 387.882 105.302C389.716 101.547 390.633 97.311 390.633 92.595C390.633 87.7917 389.716 83.556 387.882 79.888C386.048 76.22 383.471 73.338 380.153 71.242C376.834 69.0587 372.948 67.967 368.494 67.967C364.04 67.967 360.153 69.0587 356.835 71.242C353.516 73.338 350.94 76.22 349.106 79.888C347.272 83.556 346.355 87.7917 346.355 92.595C346.355 97.311 347.272 101.547 349.106 105.302C350.94 108.97 353.516 111.896 356.835 114.079C360.153 116.175 364.04 117.223 368.494 117.223ZM368.494 126.786C362.031 126.786 356.267 125.345 351.202 122.463C346.224 119.581 342.337 115.564 339.543 110.411C336.748 105.258 335.351 99.3197 335.351 92.595C335.351 85.783 336.748 79.8443 339.543 74.779C342.337 69.6263 346.224 65.609 351.202 62.727C356.267 59.845 362.031 58.404 368.494 58.404C375.044 58.404 380.808 59.845 385.786 62.727C390.764 65.609 394.65 69.6263 397.445 74.779C400.239 79.8443 401.637 85.783 401.637 92.595C401.637 99.3197 400.239 105.258 397.445 110.411C394.65 115.564 390.764 119.581 385.786 122.463C380.808 125.345 375.044 126.786 368.494 126.786Z" fill="#DAE5C5"/>
<path d="M270.668 34.3H281.41V75.041L280.1 72.552C281.323 70.1067 282.939 67.836 284.947 65.74C286.956 63.5567 289.489 61.81 292.545 60.5C295.602 59.1027 299.226 58.404 303.418 58.404C308.396 58.404 312.938 59.4083 317.042 61.417C321.147 63.4257 324.422 66.657 326.867 71.111C329.313 75.4777 330.535 81.3727 330.535 88.796V126H319.793V89.451C319.793 82.4643 318.178 77.1807 314.946 73.6C311.802 70.0193 307.348 68.229 301.584 68.229C297.392 68.229 293.768 69.2333 290.711 71.242C287.742 73.1633 285.428 75.958 283.768 79.626C282.196 83.294 281.41 87.617 281.41 92.595V126H270.668V34.3Z" fill="#DAE5C5"/>
<path d="M230.396 126.786C222.973 126.786 216.597 125.476 211.27 122.856C205.943 120.236 201.838 116.612 198.956 111.983C196.074 107.354 194.502 102.027 194.24 96.001H206.03C206.467 102.114 208.912 107.049 213.366 110.804C217.82 114.559 223.54 116.437 230.527 116.437C236.728 116.437 241.793 115.083 245.723 112.376C249.653 109.669 251.618 105.826 251.618 100.848C251.618 97.966 250.963 95.608 249.653 93.774C248.343 91.94 246.509 90.499 244.151 89.451C241.88 88.3157 239.217 87.3987 236.16 86.7C233.191 86.0013 229.959 85.3463 226.466 84.735C222.798 84.1237 219.174 83.294 215.593 82.246C212.012 81.198 208.781 79.757 205.899 77.923C203.017 76.089 200.703 73.6873 198.956 70.718C197.297 67.7487 196.467 64.037 196.467 59.583C196.467 54.343 197.777 49.8017 200.397 45.959C203.017 42.029 206.685 38.9723 211.401 36.789C216.117 34.6057 221.575 33.514 227.776 33.514C234.588 33.514 240.483 34.693 245.461 37.051C250.439 39.409 254.325 42.684 257.12 46.876C259.915 51.068 261.487 55.915 261.836 61.417H250.046C249.435 56.0897 247.12 51.854 243.103 48.71C239.086 45.4787 233.977 43.863 227.776 43.863C221.837 43.863 217.034 45.173 213.366 47.793C209.698 50.3257 207.864 54.0373 207.864 58.928C207.864 61.6353 208.519 63.906 209.829 65.74C211.139 67.4867 212.929 68.9277 215.2 70.063C217.471 71.111 220.091 71.9843 223.06 72.683C226.117 73.2943 229.348 73.9057 232.754 74.517C236.509 75.1283 240.177 75.958 243.758 77.006C247.339 78.054 250.57 79.5387 253.452 81.46C256.421 83.294 258.736 85.6957 260.395 88.665C262.142 91.6343 263.015 95.346 263.015 99.8C263.015 105.04 261.618 109.712 258.823 113.817C256.116 117.834 252.317 121.022 247.426 123.38C242.535 125.651 236.859 126.786 230.396 126.786Z" fill="#DAE5C5"/>
</g>
<defs>
<clipPath id="clip0_1_17">
<rect width="560" height="157" fill="white"/>
</clipPath>
</defs>
</svg>
